<?xml version="1.0" encoding="UTF-8"?>
<svg id="Livello_2" data-name="Livello 2" xmlns="http://www.w3.org/2000/svg" viewBox="0 0 26 26">
  <defs>
    <style>
      .cls-1 {
        fill: #5b4fd8;
      }

      .cls-2 {
        fill: #fff;
      }
    </style>
  </defs>
  <g>
    <path class="cls-1" d="M20.84,18.28c.03-2.61.07-5.56-3.14-7.42-1.46-.85-3.57-.94-5.61-1.03-1.86-.08-3.61-.16-4.99-.76-.61-.26-1.1-.61-1.48-1.05v17.99h15.21v-6.98c0-.24,0-.49,0-.75Z"/>
    <path class="cls-1" d="M4.67,25.99V6.47c-.87-.22-1.51-.99-1.51-1.93s.65-1.71,1.51-1.93V.01C2.08.09,0,2.2,0,4.81v16.38c0,2.61,2.08,4.72,4.67,4.79Z"/>
    <path class="cls-1" d="M21.19,0H5.62v2.62c.87.22,1.51.99,1.51,1.93,0,.86-.55,1.59-1.31,1.86.65,2.07,2.93,2.3,6.31,2.46,2.16.1,4.39.2,6.05,1.16,3.69,2.14,3.65,5.54,3.61,8.26,0,.25,0,.5,0,.73v6.92c2.37-.3,4.21-2.3,4.21-4.75V4.81C26,2.15,23.85,0,21.19,0Z"/>
  </g>
  <path class="cls-2" d="M21.8,18.29c.03-2.73.08-6.12-3.61-8.26-1.66-.96-3.89-1.06-6.05-1.16-3.38-.15-5.66-.38-6.31-2.46.76-.28,1.31-1,1.31-1.86,0-.93-.65-1.71-1.51-1.93V0h-.96v2.62c-.87.22-1.51.99-1.51,1.93s.65,1.71,1.51,1.93v19.53h.96V8.01c.38.44.87.79,1.48,1.05,1.38.6,3.13.68,4.99.76,2.04.09,4.16.19,5.61,1.03,3.21,1.86,3.17,4.82,3.14,7.42,0,.25,0,.5,0,.75v6.98h.96v-6.98c0-.24,0-.48,0-.73Z"/>
</svg>
